<?xml version="1.0" standalone="no"?>
<!DOCTYPE svg PUBLIC "-//W3C//DTD SVG 20010904//EN"
 "http://www.w3.org/TR/2001/REC-SVG-20010904/DTD/svg10.dtd">
<svg version="1.0" xmlns="http://www.w3.org/2000/svg"
 width="402.000000pt" height="394.000000pt" viewBox="0 0 402.000000 394.000000"
 preserveAspectRatio="xMidYMid meet">

<g transform="translate(0.000000,394.000000) scale(0.100000,-0.100000)"
fill="#000000" stroke="none">
<path d="M2225 3924 c-150 -24 -403 -29 -526 -10 -139 21 -332 21 -413 0 -140
-36 -258 -104 -341 -196 -69 -76 -98 -145 -103 -245 -6 -113 12 -165 105 -293
148 -205 160 -258 124 -535 -12 -88 -21 -164 -21 -169 0 -4 -42 33 -92 84
-111 110 -187 162 -345 236 -65 31 -173 82 -240 114 l-122 58 -13 -36 c-9 -26
-13 -95 -12 -227 0 -167 4 -204 27 -310 55 -249 149 -432 285 -556 42 -39 62
-66 70 -96 7 -23 27 -64 46 -91 l33 -49 -34 -63 c-18 -35 -33 -68 -33 -74 0
-10 -147 -97 -502 -295 -65 -36 -118 -69 -118 -72 0 -6 525 -309 536 -309 7 0
4 44 -4 56 -8 13 -314 194 -374 222 -21 9 -37 22 -37 27 0 6 86 60 192 120
105 61 213 123 240 138 l48 28 -3 -42 -3 -41 -168 -98 c-93 -54 -170 -100
-172 -102 -2 -2 12 -13 33 -23 20 -11 88 -50 152 -87 l114 -67 26 23 c31 29
65 47 74 39 15 -15 4 -50 -18 -63 -32 -16 -50 -61 -42 -102 3 -18 78 -188 165
-378 130 -282 163 -345 178 -342 10 1 53 12 97 24 73 20 79 20 88 5 53 -95
672 -156 1117 -111 283 29 431 67 450 116 5 13 21 33 35 46 24 20 29 21 54 9
40 -21 242 -86 276 -89 28 -3 31 1 100 152 l72 155 48 7 c65 9 116 45 149 106
57 105 55 193 -7 326 -38 80 -33 77 -174 121 -47 15 -52 19 -46 38 4 12 8 23
9 25 9 10 175 -53 206 -78 l36 -29 151 87 c84 47 148 90 144 94 -4 4 -118 71
-252 148 -242 139 -244 140 -257 182 -7 23 -11 44 -9 45 2 2 135 -74 297 -168
162 -94 309 -179 327 -187 17 -9 32 -18 32 -22 0 -3 -50 -35 -112 -70 -91 -53
-123 -66 -170 -71 -67 -7 -80 -15 -55 -34 20 -15 25 -10 -57 -59 -16 -10 -25
-27 -28 -50 l-4 -34 74 40 73 40 44 -46 c31 -31 53 -46 70 -46 87 0 126 90 66
151 l-29 29 130 74 129 74 -163 92 c-90 51 -278 158 -418 237 -180 102 -259
151 -268 170 -12 21 -12 27 0 34 25 16 57 9 91 -21 l34 -29 31 32 c17 18 44
59 59 92 24 52 28 72 28 151 0 81 3 95 26 130 70 106 135 276 166 434 19 101
26 427 10 503 -9 40 -27 47 -62 24 -11 -8 -66 -35 -122 -61 -357 -162 -485
-243 -578 -365 -21 -28 -42 -48 -46 -43 -13 14 -43 269 -43 367 0 123 16 163
115 297 117 158 152 256 132 366 -22 117 -82 211 -180 283 -157 117 -386 167
-598 133z m314 -130 c130 -30 273 -131 324 -229 29 -58 29 -165 -2 -224 -13
-25 -81 -104 -151 -177 -100 -104 -136 -149 -164 -205 -20 -39 -36 -82 -36
-94 0 -33 33 -57 74 -54 19 2 38 1 41 -2 5 -6 66 -472 62 -476 -1 -1 -38 9
-82 22 -169 49 -313 67 -585 72 -354 8 -638 -19 -802 -76 l-58 -20 0 27 c0 15
11 115 25 222 48 374 35 438 -131 655 -69 91 -94 151 -94 228 0 143 144 279
350 332 105 28 458 11 360 -16 -14 -4 -47 -7 -73 -8 -26 -1 -63 -8 -82 -15
-30 -13 -35 -20 -35 -49 0 -51 20 -62 107 -60 112 3 228 28 431 94 100 32 211
63 245 68 74 12 188 5 276 -15z m-1940 -1178 c70 -36 180 -127 225 -187 110
-148 158 -361 100 -448 -2 -2 -17 3 -34 10 -24 11 -30 18 -25 34 22 68 7 159
-46 273 -37 79 -141 188 -233 242 -65 38 -83 59 -73 84 9 22 29 20 86 -8z
m2732 2 c13 -25 9 -30 -86 -88 -82 -50 -185 -157 -219 -226 -62 -126 -74 -247
-31 -320 l25 -42 -25 -16 c-32 -21 -42 -15 -71 48 -42 91 -30 222 33 356 43
90 163 215 263 273 74 43 95 46 111 15z m-1847 -590 c56 -51 26 -138 -48 -138
-26 0 -41 7 -60 31 -34 40 -33 54 8 95 40 40 65 43 100 12z m978 -8 c25 -26
29 -36 24 -63 -12 -64 -86 -89 -133 -45 -34 32 -31 79 8 112 40 34 64 33 101
-4z m-1642 -33 c30 -13 105 -52 165 -89 138 -83 182 -105 550 -273 165 -75
304 -141 309 -146 6 -5 -8 -47 -34 -104 -24 -52 -45 -94 -47 -92 -2 2 8 29 22
61 44 101 26 74 -41 -57 -36 -71 -70 -127 -76 -125 -6 2 -31 40 -55 84 -72
129 -106 154 -264 194 -118 30 -260 100 -344 169 -105 87 -137 102 -215 100
l-65 -3 -28 46 c-40 64 -49 112 -32 162 8 22 12 42 10 44 -9 9 -35 -61 -36
-100 -2 -33 -3 -36 -6 -14 -8 50 6 94 41 131 40 42 67 44 146 12z m2506 -12
c35 -37 49 -81 41 -131 -3 -22 -4 -19 -6 14 -1 41 -27 109 -38 99 -2 -3 1 -15
7 -28 20 -36 7 -122 -26 -175 l-29 -48 -61 3 c-78 3 -111 -11 -204 -88 -91
-75 -243 -152 -358 -181 -125 -31 -158 -47 -207 -102 -49 -55 -59 -53 -21 2
32 47 100 83 221 114 126 33 262 99 340 166 87 76 129 101 188 116 l52 14 -56
-4 c-68 -5 -102 -22 -194 -94 -84 -66 -215 -130 -344 -166 -145 -42 -193 -73
-233 -149 -14 -29 -24 -37 -36 -32 -121 44 -136 52 -154 80 -18 28 -19 28 -14
5 4 -14 -6 -1 -21 27 -17 33 -23 56 -18 62 6 5 164 79 353 166 189 87 405 194
480 238 233 137 282 151 338 92z m-1251 -457 l50 -11 -62 -28 -62 -29 -86 38
c-73 31 -83 38 -63 44 28 9 155 1 223 -14z m-104 -92 c272 -123 882 -363 1213
-477 93 -32 174 -63 179 -68 23 -23 5 -84 -86 -291 -181 -411 -200 -455 -208
-464 -15 -16 -299 75 -299 96 0 13 23 8 145 -35 148 -52 140 -51 153 -22 11
23 9 25 -31 36 -50 13 -199 69 -209 78 -4 3 2 33 13 66 25 72 19 131 -16 174
-27 32 -187 104 -325 147 -111 34 -177 69 -275 143 -124 94 -204 112 -301 67
-29 -13 -69 -40 -91 -59 l-38 -35 -84 45 c-60 33 -81 50 -78 62 5 18 259 571
263 571 1 0 35 -15 75 -34z m148 8 c6 -15 10 -28 9 -29 -2 -2 -20 4 -42 13
l-38 15 23 13 c33 18 34 18 48 -12z m-599 -175 c0 -10 -90 -52 -97 -45 -2 2 8
28 23 57 l26 53 24 -27 c13 -16 24 -33 24 -38z m20 -48 c0 -10 -189 -86 -562
-227 -114 -43 -206 -79 -204 -81 7 -7 597 207 722 262 l57 25 22 -24 c12 -13
40 -36 63 -51 l41 -27 -36 -76 c-19 -43 -43 -96 -54 -119 -17 -40 -20 -42 -44
-33 -15 6 -50 10 -78 10 -77 0 -148 -37 -226 -119 -118 -122 -185 -289 -179
-441 l3 -75 -72 -24 c-68 -22 -72 -25 -61 -45 6 -11 12 -22 12 -23 1 -2 37 8
79 21 43 13 80 20 83 15 3 -5 -6 -13 -20 -19 -51 -19 -137 -41 -147 -38 -6 2
-37 64 -71 138 -235 526 -260 592 -231 621 6 6 65 29 130 51 143 48 698 255
733 274 30 16 40 17 40 5z m1338 -58 c77 -28 128 -53 137 -66 31 -45 17 -47
-82 -11 -54 19 -102 39 -108 43 -5 4 -31 14 -58 21 -54 14 -61 22 -52 51 5 14
12 18 23 14 10 -4 72 -27 140 -52z m-844 -325 c-12 -41 -32 -74 -78 -129 -48
-58 -52 -71 -12 -45 21 13 24 13 20 1 -3 -8 -15 -17 -26 -21 -26 -8 -58 -62
-58 -98 0 -26 2 -28 28 -23 16 3 53 3 83 0 54 -5 55 -6 55 -39 0 -33 0 -33
-41 -27 -29 4 -44 1 -53 -10 -16 -19 -1 -31 54 -46 51 -14 83 -39 107 -82 19
-34 19 -34 -18 6 l-36 40 18 -34 c10 -18 31 -47 46 -64 15 -16 26 -31 24 -33
-6 -6 -207 15 -248 26 -98 27 -199 94 -231 154 -6 12 9 0 34 -26 25 -26 68
-58 95 -72 55 -27 195 -59 239 -54 26 3 21 8 -58 65 -144 105 -203 197 -180
285 8 29 10 33 7 11 -3 -18 0 -33 5 -33 6 0 10 8 10 18 0 30 58 113 129 183
70 71 97 86 85 47z m46 -3 c0 -8 22 -29 50 -46 52 -32 66 -55 54 -91 -6 -21
-5 -22 11 -8 16 13 18 13 13 0 -2 -8 -27 -19 -54 -25 -43 -9 -49 -14 -52 -37
-4 -31 15 -44 76 -54 37 -6 40 -8 29 -25 -10 -16 -6 -24 23 -55 41 -42 71 -59
121 -68 19 -3 44 -13 55 -21 18 -14 18 -15 -6 -6 -14 5 -41 12 -61 16 -21 3
-54 17 -75 31 l-39 24 32 -28 c18 -15 83 -50 145 -77 62 -27 142 -62 178 -78
l65 -29 -30 -15 c-39 -21 -264 -29 -270 -10 -2 7 -6 24 -9 39 -5 21 -16 30
-55 43 -58 19 -79 41 -119 120 -16 33 -48 83 -71 110 -23 27 -46 65 -52 84
-12 36 -7 122 11 184 11 37 30 51 30 22z m-604 -40 c-18 -43 -66 -113 -95
-139 -31 -28 -25 -39 12 -21 30 15 30 14 -10 -20 -39 -33 -73 -98 -59 -113 4
-3 43 -6 87 -6 l81 -1 3 -38 c2 -40 -4 -42 -57 -22 -7 3 -22 -1 -33 -9 -18
-13 -18 -16 -5 -29 8 -7 34 -19 56 -25 51 -15 83 -40 107 -83 19 -34 19 -34
-18 6 l-36 40 18 -34 c10 -18 30 -47 46 -63 15 -17 27 -31 27 -32 0 -6 -201
15 -244 25 -78 18 -157 62 -204 113 -56 61 -54 70 3 11 25 -25 70 -58 101 -72
75 -34 264 -68 249 -44 -3 5 -40 34 -83 64 -78 54 -135 115 -166 174 -17 35
-20 106 -5 138 6 14 8 7 4 -25 -5 -48 -6 -49 31 39 19 43 163 198 187 200 16
1 16 -2 3 -34z m111 -39 c37 -19 57 -49 50 -78 -4 -14 -2 -18 10 -14 9 4 13 1
11 -6 -3 -7 -26 -16 -53 -20 -52 -7 -65 -19 -57 -50 4 -17 15 -24 69 -43 9 -3
8 -12 -3 -35 -10 -19 -13 -41 -9 -57 8 -34 -91 87 -112 137 -17 39 -13 153 7
205 l11 29 22 -26 c12 -15 36 -33 54 -42z m923 -236 c0 -17 5 -40 11 -52 6
-11 8 -22 6 -25 -8 -8 -34 47 -41 88 -3 20 -17 46 -31 59 -14 13 -25 28 -25
34 0 6 18 -8 40 -31 29 -31 40 -51 40 -73z m128 55 c41 -17 56 -35 28 -35 -7
0 -19 -7 -26 -15 -23 -28 -2 -64 65 -112 36 -26 65 -50 65 -53 0 -4 -10 -15
-21 -26 -16 -14 -23 -16 -26 -6 -3 7 -26 26 -51 44 -38 26 -43 27 -27 8 l20
-23 -22 12 c-30 15 -77 86 -119 177 -19 41 -34 77 -34 79 0 4 83 -24 148 -50z
m-473 -200 c17 -22 50 -50 75 -62 37 -19 40 -23 19 -23 -39 0 -96 46 -129 103
-32 56 -40 88 -12 47 9 -13 31 -43 47 -65z m-581 9 c14 -26 26 -49 26 -53 -1
-10 -30 31 -52 73 -27 53 -5 36 26 -20z m202 -191 c10 -38 1 -36 -49 7 -30 27
-50 55 -61 87 -9 26 -16 49 -16 51 0 14 121 -125 126 -145z m-562 -11 c28 -54
14 -57 -39 -11 -38 34 -58 66 -69 112 -6 27 -4 26 43 -21 27 -27 56 -63 65
-80z m1502 69 c-23 -23 -26 -23 -26 -6 0 10 10 30 23 43 19 21 22 21 25 7 2
-10 -8 -29 -22 -44z m-66 -33 c0 -21 -13 -34 -48 -52 -44 -23 -176 -56 -222
-56 -32 0 -39 4 -50 30 -7 17 -10 34 -6 38 4 3 62 9 129 12 85 5 131 11 152
23 37 20 45 21 45 5z m-502 -47 c2 0 -6 -14 -18 -31 -15 -21 -30 -30 -48 -30
-43 0 -54 12 -43 43 9 24 14 26 58 23 26 -2 49 -4 51 -5z m-558 -31 c0 -26
-33 -59 -54 -56 -11 3 -31 5 -43 5 -19 1 -20 3 -10 31 10 28 15 30 59 30 26 0
48 -5 48 -10z m225 -50 c3 -5 -1 -10 -9 -10 -9 0 -16 5 -16 10 0 6 4 10 9 10
6 0 13 -4 16 -10z"/>
<path d="M1709 2710 c-143 -10 -284 -27 -327 -41 -37 -12 -51 -47 -33 -86 12
-25 13 -26 94 -20 45 3 141 11 212 17 157 15 543 7 695 -14 114 -15 135 -11
150 30 12 32 -2 62 -36 74 -77 29 -550 55 -755 40z"/>
<path d="M856 1864 c-29 -29 -12 -64 31 -64 31 0 44 47 18 67 -24 17 -30 16
-49 -3z"/>
<path d="M825 1737 c66 -18 78 -25 171 -102 97 -82 226 -146 359 -181 166 -43
194 -64 269 -197 41 -72 40 -52 0 33 -59 123 -93 149 -255 196 -129 36 -260
100 -344 166 -92 72 -126 89 -194 94 l-56 4 50 -13z"/>
<path d="M1217 1673 c-15 -14 -6 -53 15 -64 18 -10 24 -8 40 11 13 17 15 26 8
41 -10 18 -50 26 -63 12z"/>
<path d="M1592 1498 c-25 -25 -6 -68 30 -68 9 0 22 9 28 20 22 40 -26 80 -58
48z"/>
<path d="M3095 1867 c-26 -20 -13 -67 18 -67 43 0 60 35 31 64 -19 19 -25 20
-49 3z"/>
<path d="M2721 1662 c-8 -16 -7 -25 7 -42 16 -20 21 -21 41 -11 33 18 26 65
-11 69 -18 2 -30 -3 -37 -16z"/>
<path d="M2349 1486 c-9 -20 -9 -29 1 -41 28 -34 87 5 64 43 -18 28 -52 27
-65 -2z"/>
<path d="M2052 1361 c82 -54 1129 -463 1144 -448 3 2 -53 26 -123 52 -274 102
-572 218 -785 306 -238 98 -263 107 -236 90z"/>
<path d="M3212 847 c-27 -29 -28 -61 -2 -87 40 -40 110 -14 110 41 0 61 -67
90 -108 46z m72 -13 c35 -35 -2 -76 -42 -48 -25 17 -28 34 -10 52 16 16 33 15
52 -4z m-39 -72 c-3 -3 -11 0 -18 7 -9 10 -8 11 6 5 10 -3 15 -9 12 -12z"/>
<path d="M700 850 c-27 -27 -26 -75 2 -94 31 -22 64 -20 88 4 28 28 25 64 -6
89 -33 26 -58 27 -84 1z m74 -23 c9 -15 7 -22 -12 -37 -42 -35 -84 7 -46 45
20 19 43 16 58 -8z m1 -57 c-3 -5 -12 -10 -18 -10 -7 0 -6 4 3 10 19 12 23 12
15 0z"/>
</g>
</svg>
